<svg width="66" height="66" viewBox="0 0 66 66" fill="none" xmlns="http://www.w3.org/2000/svg">
<path fill-rule="evenodd" clip-rule="evenodd" d="M57.9364 0C62.3869 0 66 3.61324 66 8.0636V57.9364C66 62.3868 62.3868 66 57.9364 66H44.212V41.132H52.7972L54.4307 30.4817H44.212V23.5701C44.212 20.6565 45.6394 17.8163 50.2165 17.8163H54.8625V8.749C54.8625 8.749 50.646 8.02944 46.6148 8.02944C38.1988 8.02944 32.6981 13.1301 32.6981 22.3643V30.4817H23.343V41.132H32.6981V66H8.0636C3.61324 66 0 62.3868 0 57.9364V8.0636C0 3.61324 3.61311 0 8.0636 0H57.9364V0Z" fill="black"/>
</svg>
