<svg width="66" height="66" viewBox="0 0 66 66" fill="none" xmlns="http://www.w3.org/2000/svg">
<path fill-rule="evenodd" clip-rule="evenodd" d="M57.9364 0C62.3869 0 66 3.61324 66 8.0636V57.9364C66 62.3868 62.3868 66 57.9364 66H8.0636C3.61324 66 0 62.3868 0 57.9364V8.0636C0 3.61324 3.61311 0 8.0636 0L57.9364 0ZM33 10.4414C26.8735 10.4414 26.1052 10.4673 23.6992 10.5771C21.298 10.6867 19.6582 11.068 18.2232 11.6258C16.7398 12.2023 15.4818 12.9736 14.2276 14.2276C12.9735 15.4818 12.2021 16.7399 11.6257 18.2232C11.068 19.6582 10.6867 21.298 10.577 23.6992C10.4673 26.1052 10.4414 26.8735 10.4414 33C10.4414 39.1265 10.4673 39.8948 10.577 42.3008C10.6867 44.702 11.068 46.3418 11.6257 47.7768C12.2021 49.2601 12.9735 50.5182 14.2276 51.7724C15.4818 53.0265 16.7398 53.7979 18.2232 54.3743C19.6582 54.932 21.298 55.3133 23.6992 55.4229C26.1052 55.5327 26.8735 55.5586 33 55.5586C39.1265 55.5586 39.8948 55.5327 42.3008 55.4229C44.702 55.3133 46.3418 54.932 47.7768 54.3743C49.2601 53.7979 50.5182 53.0265 51.7724 51.7724C53.0265 50.5182 53.7979 49.2601 54.3743 47.7768C54.932 46.3418 55.3133 44.702 55.4229 42.3008C55.5327 39.8948 55.5586 39.1265 55.5586 33C55.5586 26.8735 55.5327 26.1052 55.4229 23.6992C55.3133 21.298 54.932 19.6582 54.3743 18.2232C53.7979 16.7399 53.0265 15.4818 51.7724 14.2276C50.5182 12.9736 49.2601 12.2023 47.7768 11.6258C46.3418 11.068 44.702 10.6867 42.3008 10.5771C39.8948 10.4673 39.1265 10.4414 33 10.4414ZM33 14.5061C39.0234 14.5061 39.7369 14.529 42.1156 14.6376C44.315 14.738 45.5094 15.1055 46.3044 15.4142C47.3574 15.8235 48.1088 16.3124 48.8983 17.1017C49.6877 17.8912 50.1765 18.6427 50.5858 19.6956C50.8946 20.4906 51.2621 21.685 51.3624 23.8844C51.471 26.2631 51.494 26.9766 51.494 33C51.494 39.0234 51.471 39.7369 51.3624 42.1156C51.2621 44.315 50.8946 45.5094 50.5858 46.3044C50.1765 47.3574 49.6877 48.1088 48.8983 48.8983C48.1088 49.6877 47.3574 50.1765 46.3044 50.5858C45.5094 50.8946 44.315 51.2621 42.1156 51.3624C39.7373 51.471 39.0238 51.494 33 51.494C26.9762 51.494 26.2628 51.471 23.8844 51.3624C21.685 51.2621 20.4906 50.8946 19.6956 50.5858C18.6426 50.1765 17.8912 49.6877 17.1017 48.8983C16.3123 48.1088 15.8234 47.3574 15.4142 46.3044C15.1054 45.5094 14.7379 44.315 14.6374 42.1156C14.5289 39.7369 14.5059 39.0234 14.5059 33C14.5059 26.9766 14.5289 26.2631 14.6374 23.8844C14.7379 21.685 15.1054 20.4906 15.4142 19.6956C15.8234 18.6427 16.3123 17.8912 17.1017 17.1017C17.8912 16.3124 18.6426 15.8235 19.6956 15.4142C20.4906 15.1055 21.685 14.738 23.8844 14.6376C26.2631 14.529 26.9766 14.5061 33 14.5061ZM33 21.4158C26.6023 21.4158 21.4158 26.6023 21.4158 33C21.4158 39.3977 26.6023 44.5842 33 44.5842C39.3977 44.5842 44.5842 39.3977 44.5842 33C44.5842 26.6023 39.3977 21.4158 33 21.4158ZM33 40.5195C28.847 40.5195 25.4805 37.153 25.4805 33C25.4805 28.847 28.847 25.4805 33 25.4805C37.153 25.4805 40.5195 28.847 40.5195 33C40.5195 37.153 37.153 40.5195 33 40.5195ZM47.7489 20.9582C47.7489 22.4533 46.5368 23.6651 45.0418 23.6651C43.5469 23.6651 42.3349 22.4533 42.3349 20.9582C42.3349 19.4632 43.5469 18.2512 45.0418 18.2512C46.5368 18.2512 47.7489 19.4632 47.7489 20.9582Z" fill="black"/>
</svg>
