<svg width="66" height="66" viewBox="0 0 66 66" fill="none" xmlns="http://www.w3.org/2000/svg">
<path fill-rule="evenodd" clip-rule="evenodd" d="M57.9364 0C62.3869 0 66 3.61324 66 8.0636V57.9364C66 62.3868 62.3868 66 57.9364 66H8.0636C3.61324 66 0 62.3868 0 57.9364V8.0636C0 3.61324 3.61311 0 8.0636 0H57.9364V0ZM20.6844 54.5632V25.4668H11.0113V54.5632H20.6844ZM55.5586 54.5632V37.8777C55.5586 28.9402 50.7867 24.7826 44.4235 24.7826C39.2926 24.7826 36.9942 27.6045 35.7073 29.5864V25.4668H26.0366C26.1649 28.1972 26.0366 54.5632 26.0366 54.5632H35.7072V38.3138C35.7072 37.4439 35.7698 36.5746 36.0261 35.9529C36.724 34.2158 38.3164 32.4164 40.9882 32.4164C44.4861 32.4164 45.8875 35.0857 45.8875 38.9954V54.5632H55.5586V54.5632ZM15.9132 11.4368C12.6037 11.4368 10.4414 13.6126 10.4414 16.4644C10.4414 19.2563 12.5379 21.492 15.7852 21.492H15.8476C19.2204 21.492 21.3199 19.2563 21.3199 16.4644C21.2574 13.6166 19.2264 11.443 15.9132 11.4368V11.4368Z" fill="black"/>
</svg>
