<svg width="66" height="66" viewBox="0 0 66 66" fill="none" xmlns="http://www.w3.org/2000/svg">
<path fill-rule="evenodd" clip-rule="evenodd" d="M57.9364 0C62.3869 0 66 3.61324 66 8.0636V57.9364C66 62.3868 62.3868 66 57.9364 66H8.0636C3.61324 66 0 62.3868 0 57.9364V8.0636C0 3.61324 3.61311 0 8.0636 0H57.9364V0ZM25.2036 54.7264C42.727 54.7264 52.3085 40.206 52.3085 27.6215C52.3085 27.2067 52.3085 26.7917 52.2888 26.3966C54.1458 25.0533 55.7657 23.3741 57.0499 21.4577C55.3509 22.2085 53.5136 22.7222 51.5776 22.9592C53.5532 21.7738 55.0546 19.9168 55.7657 17.6844C53.9286 18.7709 51.8937 19.5613 49.7206 19.9958C47.982 18.1388 45.5125 16.9929 42.7666 16.9929C37.5115 16.9929 33.2443 21.2603 33.2443 26.5152C33.2443 27.266 33.3233 27.9969 33.5011 28.6883C25.579 28.2932 18.5657 24.5002 13.8639 18.7315C13.0538 20.1341 12.5797 21.7738 12.5797 23.5124C12.5797 26.8116 14.259 29.7354 16.8272 31.4344C15.2665 31.3949 13.8046 30.9603 12.5204 30.249V30.3676C12.5204 34.9904 15.7999 38.8231 20.166 39.712C19.3758 39.9294 18.5263 40.0479 17.6569 40.0479C17.0445 40.0479 16.4519 39.9887 15.8592 39.8701C17.0644 43.6633 20.5808 46.4092 24.7492 46.4882C21.4896 49.0368 17.3804 50.5579 12.9156 50.5579C12.1452 50.5579 11.3944 50.5185 10.6437 50.4196C14.8121 53.146 19.83 54.7264 25.2036 54.7264V54.7264Z" fill="black"/>
</svg>
