<svg width="1412" height="760" viewBox="0 0 1412 760" fill="none" xmlns="http://www.w3.org/2000/svg">
<path d="M198.707 116.314L85.9377 233.386L96.5763 290.857L37 322.786L219.984 378.129L279.561 522.871L515.738 467.529L766.81 674L1020.01 412.186L1147.67 565.443L1403 393.029L1388.11 244.029L854.047 150.371L654.04 175.914L458.29 78L319.988 186.557L198.707 116.314Z" stroke="url(#paint0_linear)" stroke-opacity="0.733725" stroke-width="17"/>
<path d="M161.707 190.314L48.9377 307.386L59.5763 364.857L0 396.786L182.984 452.129L242.561 596.871L478.738 541.529L729.81 748L983.009 486.186L1110.67 639.443L1366 467.029L1351.11 318.029L817.047 224.371L617.04 249.914L421.29 152L282.988 260.557L161.707 190.314Z" stroke="url(#paint1_linear)" stroke-opacity="0.733725" stroke-width="17"/>
<path d="M198.707 49.3143L85.9377 166.386L96.5763 223.857L37 255.786L219.984 311.129L279.561 455.871L515.738 400.529L766.81 607L1020.01 345.186L1147.67 498.443L1403 326.029L1388.11 177.029L854.047 83.3714L654.04 108.914L458.29 11L319.988 119.557L198.707 49.3143Z" stroke="url(#paint2_linear)" stroke-opacity="0.733725" stroke-width="17"/>
<defs>
<linearGradient id="paint0_linear" x1="720" y1="78" x2="720" y2="586.729" gradientUnits="userSpaceOnUse">
<stop stop-color="#5ACD47" stop-opacity="0.54"/>
<stop offset="0.987448" stop-color="#5ACD47" stop-opacity="0"/>
</linearGradient>
<linearGradient id="paint1_linear" x1="523" y1="254" x2="683" y2="660.729" gradientUnits="userSpaceOnUse">
<stop offset="0.395833" stop-color="#5ACD47" stop-opacity="0.01"/>
<stop offset="0.723958" stop-color="#5ACD47" stop-opacity="0.62"/>
<stop offset="0.885417" stop-color="#5ACD47" stop-opacity="0"/>
</linearGradient>
<linearGradient id="paint2_linear" x1="720" y1="11" x2="720" y2="519.729" gradientUnits="userSpaceOnUse">
<stop stop-color="#5ACD47"/>
<stop offset="0.34375" stop-color="#5ACD47" stop-opacity="0"/>
</linearGradient>
</defs>
</svg>
